Release Tittle:Falak - Ijazat Full Video Song 720p -ESub~JamMafia{TMRG}
Watch and enjoy another lovely music video song "Ijazat" by pakistani singer/superstar "Falak" who is also singing in the upcoming bollywood flick "I Love NY".

Details.:.:.
General
Complete name : Falak - Ijazat Full Video Song 720p -ESub~JamMafia{TMRG}.avi
Format : AVI
Format/Info : Audio Video Interleave
File size : 50.9 MiB
Duration : 4mn 5s
Overall bit rate : 1 737 Kbps

Video
ID : 0
Format : MPEG-4 Visual
Format profile : Advanced Simple@L5
Format settings, BVOP : 2
Format settings, QPel : No
Format settings, GMC : No warppoints
Format settings, Matrix : Default (H.263)
Codec ID : XVID
Codec ID/Hint : XviD
Duration : 4mn 5s
Bit rate : 1 602 Kbps
Width : 1 280 pixels
Height : 720 pixels
Display aspect ratio : 16:9
Frame rate : 25.000 fps
Color space : YUV
Chroma subsampling : 4:2:0
Bit depth : 8 bits
Scan type : Progressive
Compression mode : Lossy
Bits/(Pixel*Frame) : 0.070
Stream size : 46.9 MiB (92%)
Writing library : XviD 1.2.1 (UTC 2008-12-04)

Audio
ID : 1
Format : MPEG Audio
Format version : Version 1
Format profile : Layer 3
Mode : Joint stereo
Mode extension : MS Stereo
Codec ID : 55
Codec ID/Hint : MP3
Duration : 4mn 5s
Bit rate mode : Constant
Bit rate : 128 Kbps
Channel(s) : 2 channels
Sampling rate : 44.1 KHz
Compression mode : Lossy
Stream size : 3.75 MiB (7%)
Alignment : Aligned on interleaves
Interleave, duration : 160 ms (4.00 video frames)
Interleave, preload duration : 208 ms
Title : Falak - Ijazat Full Music Video HD .MP4_track_1__audio
Writing library : LAME3.99r
Encoding settings : -m j -V 4 -q 2 -lowpass 17 -b 128

Text
Language:English

ScreenShots: 
http://i.minus.com/ibwuydUJRzJX6p.jpg